<?xml version="1.0" standalone="no"?>
<!DOCTYPE svg PUBLIC "-//W3C//DTD SVG 20010904//EN"
 "http://www.w3.org/TR/2001/REC-SVG-20010904/DTD/svg10.dtd">
<svg version="1.0" xmlns="http://www.w3.org/2000/svg"
 width="304.000000pt" height="304.000000pt" viewBox="0 0 304.000000 304.000000"
 preserveAspectRatio="xMidYMid meet">

<g transform="translate(0.000000,304.000000) scale(0.100000,-0.100000)"
fill="#000000" stroke="none">
<path d="M1524 2869 c-8 -14 152 -89 234 -110 113 -29 183 -23 114 9 -149 71
-333 124 -348 101z"/>
<path d="M906 2608 c-26 -29 -58 -71 -73 -93 -14 -22 -34 -51 -43 -65 -33 -50
-83 -145 -111 -212 -22 -53 -25 -68 -14 -68 9 0 40 50 74 118 32 65 96 173
141 241 45 67 80 125 77 127 -3 3 -26 -19 -51 -48z"/>
<path d="M1864 1955 c-155 -16 -210 -29 -224 -55 -12 -22 -2 -127 12 -136 6
-4 26 10 46 29 49 47 118 69 220 70 80 1 84 0 114 -31 l32 -31 -106 6 c-58 3
-117 3 -131 -1 -33 -8 -87 -53 -87 -73 0 -11 8 -8 31 11 17 14 34 26 39 26 4
0 32 -18 61 -40 29 -21 57 -36 63 -33 6 3 24 15 39 26 15 10 34 16 42 13 17
-6 21 -61 5 -71 -20 -13 -9 -25 18 -19 67 14 112 36 124 62 17 35 44 39 73 12
35 -33 40 -8 10 58 -31 68 -51 91 -131 148 -69 49 -57 48 -250 29z"/>
<path d="M1063 1949 c-95 -10 -187 -42 -220 -75 -22 -22 -23 -26 -9 -46 9 -12
16 -37 16 -54 0 -43 39 -99 70 -99 19 0 30 10 48 42 l23 42 41 -29 c60 -44 83
-39 131 30 18 26 28 24 95 -20 42 -29 41 -14 -4 38 l-36 42 -76 0 c-42 0 -104
-7 -137 -14 -33 -8 -62 -12 -64 -10 -3 3 6 16 20 29 15 16 46 30 83 37 51 11
70 10 162 -9 62 -13 118 -31 135 -44 36 -25 41 -22 68 49 14 38 16 54 8 57
-83 30 -114 37 -187 40 -47 2 -122 -1 -167 -6z"/>
<path d="M2398 1935 c-6 -6 16 -132 32 -180 7 -23 8 -12 4 42 -6 72 -26 148
-36 138z"/>
<path d="M409 1508 c-5 -50 33 -128 89 -181 30 -30 41 -35 49 -25 17 22 24 67
17 118 -7 54 -24 58 -24 7 l-1 -32 -25 30 c-85 98 -102 112 -105 83z"/>
<path d="M2445 1470 c-16 -80 -55 -403 -55 -456 0 -49 4 -63 17 -68 39 -15 61
47 64 181 1 55 -3 88 -11 98 -15 18 -15 18 25 31 24 8 35 21 54 69 13 33 26
85 29 117 l4 56 -61 -1 c-56 -2 -61 -3 -66 -27z"/>
<path d="M2313 1288 c-60 -65 -61 -69 -55 -189 3 -66 0 -145 -8 -195 -12 -83
-13 -84 -41 -84 -25 0 -32 -8 -59 -65 -23 -48 -42 -72 -69 -90 -43 -27 -51
-50 -51 -150 l0 -62 -58 -55 c-70 -67 -108 -87 -243 -129 -94 -29 -119 -33
-264 -36 l-160 -5 -70 37 c-75 39 -92 50 -230 142 -49 33 -112 73 -139 88 -47
27 -49 28 -62 10 -13 -18 -14 -18 -35 1 -12 10 -47 57 -78 104 l-56 85 -3 -57
c-2 -41 6 -92 28 -173 38 -142 37 -164 -10 -187 -52 -26 -61 -43 -54 -103 6
-51 6 -52 -30 -74 -45 -28 -65 -56 -59 -82 5 -17 15 -19 102 -19 l96 0 0 90
c0 68 4 93 16 105 14 14 24 6 113 -90 l98 -105 689 0 689 0 0 28 c0 15 -9 119
-20 232 -11 113 -20 209 -20 213 0 5 -9 6 -20 2 -19 -6 -19 -6 0 37 31 71 52
192 41 239 -6 25 -6 51 -1 65 17 44 70 418 70 494 0 18 -15 11 -47 -22z"/>
<path d="M1353 1243 c-26 -5 -47 -28 -38 -42 11 -18 148 -54 210 -55 38 0 83
8 123 22 78 27 107 29 97 5 -18 -44 -18 -53 3 -53 34 0 55 29 48 68 -3 19 -8
37 -11 41 -4 3 -46 7 -93 9 -83 3 -89 2 -133 -27 l-47 -31 -52 35 c-51 34 -61
37 -107 28z"/>
<path d="M680 1182 c0 -5 7 -30 17 -57 9 -27 26 -87 39 -134 23 -86 23 -86 23
-36 1 61 -13 122 -41 187 -18 42 -38 63 -38 40z"/>
<path d="M1256 1153 c8 -35 43 -68 57 -54 7 7 1 22 -17 46 -32 42 -49 45 -40
8z"/>
<path d="M582 1111 c2 -25 9 -46 16 -49 17 -5 16 50 -3 74 -14 18 -15 16 -13
-25z"/>
<path d="M1580 899 c-25 -5 -64 -8 -87 -6 -31 3 -46 0 -58 -13 -10 -11 -39
-20 -77 -24 -99 -12 -238 -73 -238 -107 0 -16 35 -10 177 28 125 33 150 37
273 37 122 1 139 -1 178 -22 23 -12 42 -29 42 -36 0 -26 -66 -46 -191 -56
-205 -16 -233 -20 -220 -33 12 -12 271 -23 325 -13 51 10 246 140 246 165 0
28 -53 68 -97 75 -80 12 -230 14 -273 5z"/>
<path d="M507 203 c-10 -10 -8 -55 2 -49 5 3 11 17 13 31 5 24 -2 32 -15 18z"/>
<path d="M130 20 l-45 -19 73 0 c70 -1 72 0 62 19 -13 24 -32 24 -90 0z"/>
</g>
</svg>
